{
	"asset":{
		"generator":"Khronos glTF Blender I/O v4.1.63",
		"version":"2.0"
	},
	"extensionsUsed":[
		"KHR_materials_specular"
	],
	"scene":0,
	"scenes":[
		{
			"name":"Scene",
			"nodes":[
				0
			]
		}
	],
	"nodes":[
		{
			"mesh":0,
			"name":"model.003",
			"rotation":[
				0,
				0.7071068286895752,
				-0.7071068286895752,
				3.090862321641907e-08
			],
			"scale":[
				6.599999904632568,
				3,
				3.5
			],
			"translation":[
				0,
				1.5285263061523438,
				0
			]
		}
	],
	"materials":[
		{
			"doubleSided":true,
			"extensions":{
				"KHR_materials_specular":{
					"specularFactor":0
				}
			},
			"name":"Cotton_Gabardine_FRONT_2673.003",
			"pbrMetallicRoughness":{
				"metallicFactor":0
			}
		},
		{
			"doubleSided":true,
			"extensions":{
				"KHR_materials_specular":{
					"specularFactor":0
				}
			},
			"name":"PT_FABRIC_FRONT_32035.003",
			"pbrMetallicRoughness":{
				"baseColorTexture":{
					"index":0
				},
				"metallicFactor":0
			}
		},
		{
			"doubleSided":true,
			"extensions":{
				"KHR_materials_specular":{
					"specularFactor":0
				}
			},
			"name":"Rib_1X1_319gsm_FRONT_2664.003",
			"pbrMetallicRoughness":{
				"metallicFactor":0
			}
		}
	],
	"meshes":[
		{
			"name":"model.003",
			"primitives":[
				{
					"attributes":{
						"POSITION":0,
						"NORMAL":1,
						"TEXCOORD_0":2
					},
					"indices":3,
					"material":0
				},
				{
					"attributes":{
						"POSITION":4,
						"NORMAL":5,
						"TEXCOORD_0":6
					},
					"indices":7,
					"material":1
				},
				{
					"attributes":{
						"POSITION":8,
						"NORMAL":9,
						"TEXCOORD_0":10
					},
					"indices":11,
					"material":2
				}
			]
		}
	],
	"textures":[
		{
			"sampler":0,
			"source":0
		}
	],
	"images":[
		{
			"mimeType":"image/png",
			"name":"Embedded_1",
			"uri":"Embedded_1.png"
		}
	],
	"accessors":[
		{
			"bufferView":0,
			"componentType":5126,
			"count":108083,
			"max":[
				0.2845099866390228,
				0.14950336515903473,
				0.3629860281944275
			],
			"min":[
				-0.28448423743247986,
				-0.14569522440433502,
				-0.30754733085632324
			],
			"type":"VEC3"
		},
		{
			"bufferView":1,
			"componentType":5126,
			"count":108083,
			"type":"VEC3"
		},
		{
			"bufferView":2,
			"componentType":5126,
			"count":108083,
			"type":"VEC2"
		},
		{
			"bufferView":3,
			"componentType":5125,
			"count":335424,
			"type":"SCALAR"
		},
		{
			"bufferView":4,
			"componentType":5126,
			"count":12719,
			"max":[
				0.14860640466213226,
				0.13909907639026642,
				0.10395145416259766
			],
			"min":[
				-0.14756152033805847,
				0.06505079567432404,
				-0.19421279430389404
			],
			"type":"VEC3"
		},
		{
			"bufferView":5,
			"componentType":5126,
			"count":12719,
			"type":"VEC3"
		},
		{
			"bufferView":6,
			"componentType":5126,
			"count":12719,
			"type":"VEC2"
		},
		{
			"bufferView":7,
			"componentType":5123,
			"count":40035,
			"type":"SCALAR"
		},
		{
			"bufferView":8,
			"componentType":5126,
			"count":2460,
			"max":[
				0.09308609366416931,
				0.06146436184644699,
				-0.23298609256744385
			],
			"min":[
				-0.09244877099990845,
				-0.07067790627479553,
				-0.3224146366119385
			],
			"type":"VEC3"
		},
		{
			"bufferView":9,
			"componentType":5126,
			"count":2460,
			"type":"VEC3"
		},
		{
			"bufferView":10,
			"componentType":5126,
			"count":2460,
			"type":"VEC2"
		},
		{
			"bufferView":11,
			"componentType":5123,
			"count":6153,
			"type":"SCALAR"
		}
	],
	"bufferViews":[
		{
			"buffer":0,
			"byteLength":1296996,
			"byteOffset":0,
			"target":34962
		},
		{
			"buffer":0,
			"byteLength":1296996,
			"byteOffset":1296996,
			"target":34962
		},
		{
			"buffer":0,
			"byteLength":864664,
			"byteOffset":2593992,
			"target":34962
		},
		{
			"buffer":0,
			"byteLength":1341696,
			"byteOffset":3458656,
			"target":34963
		},
		{
			"buffer":0,
			"byteLength":152628,
			"byteOffset":4800352,
			"target":34962
		},
		{
			"buffer":0,
			"byteLength":152628,
			"byteOffset":4952980,
			"target":34962
		},
		{
			"buffer":0,
			"byteLength":101752,
			"byteOffset":5105608,
			"target":34962
		},
		{
			"buffer":0,
			"byteLength":80070,
			"byteOffset":5207360,
			"target":34963
		},
		{
			"buffer":0,
			"byteLength":29520,
			"byteOffset":5287432,
			"target":34962
		},
		{
			"buffer":0,
			"byteLength":29520,
			"byteOffset":5316952,
			"target":34962
		},
		{
			"buffer":0,
			"byteLength":19680,
			"byteOffset":5346472,
			"target":34962
		},
		{
			"buffer":0,
			"byteLength":12306,
			"byteOffset":5366152,
			"target":34963
		}
	],
	"samplers":[
		{
			"magFilter":9729,
			"minFilter":9987
		}
	],
	"buffers":[
		{
			"byteLength":5378460,
			"uri":"untitled.bin"
		}
	]
}
